# xmcd
#
# Track frame offsets:
#	150
#	12082
#	31767
#	41012
#	54767
#	66612
#	81437
#	94730
#	106502
#	117602
#	133185
#	145375
#	157280
#	168970
#	181585
#	191872
#
# Disc length: 2777 seconds
#
# Revision: 1
# Processed by: cddbd v1.5.1PL0 Copyright (c) Steve Scherf et al.
# Submitted via: MusicWizard 7.0.2
#
DISCID=dc0ad710
DTITLE=Various Artist - COUNTRY HITS
DYEAR=1992
DGENRE=Country
TTITLE0=JOHNNY CASH - RING OF FIRE
TTITLE1=MARTLY ROBBENS - EL PASO
TTITLE2=FRANKIE LAINE - RAWHIDE
TTITLE3=KINGSTON TRIO - TOM DOOLEY
TTITLE4=KENNY ROGERS - ME AND BOBBY MC GEE
TTITLE5=WILLIE NELSON - SO WILL YOU MY LOVE
TTITLE6=ALABAMA - PATCHES
TTITLE7=BILLIE JO SPEARS - TRY A LITTLE KINDNESS
TTITLE8=ROY ORBISON - BLUE BAYOU
TTITLE9=OAK RIDGE BOYS - FATHER ALONG
TTITLE10=WAYLON  JENNINGS - DON'T THINK TWICE
TTITLE11=TENNESSIE ERNIE FORD - 16 TONS
TTITLE12=PATSY CLINE - WALKING AFTER MIDNIGHT
TTITLE13=FRANKIE LAINE - HIGH NOON
TTITLE14=CONWAY TWITTY - LONELY BLUE BOY
TTITLE15=JOHNNY CASH - RIDERS
EXTD=
EXTT0=
EXTT1=
EXTT2=
EXTT3=
EXTT4=
EXTT5=
EXTT6=
EXTT7=
EXTT8=
EXTT9=
EXTT10=
EXTT11=
EXTT12=
EXTT13=
EXTT14=
EXTT15=
PLAYORDER=
